<svg width="32" height="32" viewBox="0 0 32 32" fill="none" xmlns="http://www.w3.org/2000/svg">
<path d="M15.9997 29.3334C15.653 29.3334 15.3197 29.2001 15.053 28.9468L5.71968 19.6134C3.55968 17.5201 1.33301 14.8934 1.33301 11.3334C1.33301 9.01341 2.23968 6.84011 3.86634 5.20011C5.50634 3.56011 7.67967 2.66675 9.99967 2.66675C12.3197 2.66675 14.1597 3.29343 15.9997 4.85343C17.8397 3.29343 19.613 2.66675 21.9997 2.66675C24.3863 2.66675 26.493 3.57345 28.133 5.20011C29.773 6.84011 30.6663 9.01341 30.6663 11.3334C30.6663 14.8267 28.4397 17.4801 26.2663 19.6134L16.933 28.9468C16.6663 29.2134 16.333 29.3334 15.9863 29.3334H15.9997ZM9.99967 5.33341C8.39967 5.33341 6.89301 5.96009 5.75967 7.09342C4.62634 8.22676 3.99967 9.73341 3.99967 11.3334C3.99967 13.8801 5.733 15.9068 7.59967 17.7068L15.9997 26.1068L24.3863 17.7201C26.253 15.8801 27.9863 13.8401 27.9863 11.3334C27.9863 9.73341 27.3597 8.22676 26.2263 7.09342C25.093 5.96009 23.5863 5.33341 21.9863 5.33341C19.933 5.33341 18.613 5.93344 16.933 7.61344C16.413 8.13344 15.573 8.13344 15.053 7.61344C13.373 5.93344 12.053 5.33341 9.99967 5.33341Z" fill="#F49A4B"/>
<path d="M19.9995 25.3334C19.6529 25.3334 19.3195 25.2001 19.0529 24.9468L16.3862 22.2801C15.8662 21.7601 15.8662 20.9201 16.3862 20.4001C16.9062 19.8801 17.7462 19.8801 18.2662 20.4001L20.9329 23.0668C21.4529 23.5868 21.4529 24.4268 20.9329 24.9468C20.6662 25.2135 20.3329 25.3334 19.9862 25.3334H19.9995ZM23.9995 21.3334C23.6529 21.3334 23.3195 21.2001 23.0529 20.9468L20.3862 18.2801C19.8662 17.7601 19.8662 16.9201 20.3862 16.4001C20.9062 15.8801 21.7462 15.8801 22.2662 16.4001L24.9329 19.0668C25.4529 19.5868 25.4529 20.4268 24.9329 20.9468C24.6662 21.2135 24.3329 21.3334 23.9862 21.3334H23.9995ZM27.8129 17.1601C27.4929 17.1601 27.1729 17.0534 26.9195 16.8134L22.9729 13.2668C22.0662 12.4401 20.5995 12.4535 19.7062 13.2668L16.9462 15.8001C15.2529 17.3201 12.6929 17.2534 11.1062 15.6668C10.7062 15.2801 10.3995 14.8134 10.1862 14.2934C9.97287 13.7734 9.86621 13.2268 9.86621 12.6668C9.86621 12.1068 9.97287 11.5601 10.1862 11.0401C10.3995 10.5201 10.7062 10.0668 11.1062 9.66677L15.0529 5.72008C15.5729 5.20008 16.4129 5.20008 16.9329 5.72008C17.4529 6.24008 17.4529 7.08012 16.9329 7.60012L12.9862 11.5467C12.8395 11.6934 12.7195 11.8667 12.6395 12.0534C12.5595 12.2401 12.5195 12.4534 12.5195 12.6534C12.5195 12.8534 12.5595 13.0668 12.6395 13.2534C12.7195 13.4401 12.8395 13.6134 12.9862 13.7601C13.5729 14.3468 14.5329 14.3734 15.1595 13.8001L17.9062 11.2801C19.7995 9.56014 22.8795 9.57347 24.7595 11.2801L28.7062 14.8268C29.2529 15.3201 29.2929 16.1601 28.8129 16.7068C28.5462 17.0001 28.1862 17.1468 27.8262 17.1468L27.8129 17.1601Z" fill="#F49A4B"/>
</svg>
